<svg id="Layer_1" data-name="Layer 1" xmlns="http://www.w3.org/2000/svg" viewBox="0 0 512.89 420.24"><defs><style>.cls-1{fill:#87d6b5;}.cls-2{fill:#12ae6d;}</style></defs><path class="cls-1" d="M562.45,178.9l-.07.29c-.6,0-1.2,0-1.8,0H144.42l-1.8,0a1.8,1.8,0,0,1,0-.22Z" transform="translate(-49.55 -178.9)"/><path class="cls-1" d="M562.38,598.86l.07.28H142.64a1.49,1.49,0,0,1,0-.21l1.8,0H560.58C561.18,598.9,561.78,598.87,562.38,598.86Z" transform="translate(-49.55 -178.9)"/><path class="cls-2" d="M562.38,598.86c-.6,0-1.2,0-1.8,0H144.42l-1.8,0c0-.4-.11-.79-.11-1.18V353.15c0-.16,0-.32,0-.47h.34q3.38,14.58,6.75,29.17,8.82,38,17.63,76c.22,1,.62,1.15,1.51,1.14,8.87,0,17.75,0,26.63,0h1.2q17.1-60.67,34.18-121.31c.19.32.31.51.42.72q17.91,32.38,35.79,64.78a2,2,0,0,1,.08,1.61q-10.87,22.28-21.82,44.51l-4.81,9.81h41.11s.12-.24.22-.46l56.13-125.55q16-35.79,32-71.6a8.3,8.3,0,0,0,.33-1.79l13.61,5.15c-3-19.61-6-39-9-58.55l-49.32,36.4,14.08,5.38c-19.56,42.06-38.07,84.37-56,127.18-.29-.52-.48-.83-.63-1.14Q268,342.59,253,311a1.5,1.5,0,0,0-1.6-1q-21.41,0-42.82,0c-.35,0-.71,0-1.12,0q-12.44,54.77-24.86,109.44l-.16,0Q171.54,364.77,160.58,310h-1.52l-16.67-.05,0,0c0-.63.12-1.26.12-1.9q0-63.69,0-127.38c0-.52.06-1,.08-1.55l1.8,0H560.58c.6,0,1.2,0,1.8,0,0,.48,0,1,0,1.44V597.42C562.41,597.9,562.39,598.38,562.38,598.86ZM443.32,310.52c-.12,3.87-.73,7.7,2.42,10.67a76.58,76.58,0,0,1,11.44,31.34,61.09,61.09,0,0,1,.1,15.52,62.18,62.18,0,0,1-13.39,31.32,3.2,3.2,0,0,0-.6,1.82q0,28.5,0,57v1.23H556.11V432.55H473.82v-38.2H546V368.48H473.79V336.85h78.69V310.52Zm-74.89,95.42h1.34c8.28,0,16.55.06,24.83,0q7-.06,14.06-.45a53.9,53.9,0,0,0,13.76-2.72c7-2.3,13.37-5.64,18-11.48a44.91,44.91,0,0,0,7.1-14,50.81,50.81,0,0,0,2.87-20.31c-.2-2.52-.2-5.06-.57-7.56a56.11,56.11,0,0,0-4-13.87c-2.41-5.65-5.4-10.86-10.45-14.64A53.45,53.45,0,0,0,403.5,310c-14.95-.24-29.9-.05-44.85-.07a1.29,1.29,0,0,0-1.42.91q-9.64,21.9-19.32,43.8a5.47,5.47,0,0,0-.46,2.18q0,43.8,0,87.58v15h31Z" transform="translate(-49.55 -178.9)"/><path class="cls-2" d="M142.19,352.69c-1.2,6.62-2.35,13.25-3.63,19.86-.94,4.89-2.07,9.74-3.08,14.61-.82,4-1.57,8-2.4,11.95-1.17,5.68-2.41,11.36-3.58,17.05-1.4,6.82-2.74,13.66-4.15,20.49-1.14,5.56-2.35,11.11-3.52,16.68-.37,1.79-.65,3.61-1.06,5.39a1.24,1.24,0,0,1-.9.75c-9.16,0-18.31,0-27.46,0-.73,0-.85-.39-1-.91q-2.79-9.84-5.59-19.67-4.77-16.77-9.54-33.52c-2.91-10.27-5.78-20.55-8.69-30.81-1.82-6.42-3.71-12.82-5.53-19.24q-4-14-7.91-28.08-2.26-8-4.54-16.07a5.51,5.51,0,0,1-.06-.76h1.31c10.11,0,20.23,0,30.34,0,1,0,1.44.31,1.66,1.31q2.33,10.35,4.72,20.69,2.55,11,5.12,22.06c1.43,6.2,2.84,12.41,4.27,18.61,1.69,7.31,3.46,14.61,5,21.95.91,4.19,1.52,8.45,2.29,12.68.65,3.63,1.34,7.25,2.26,10.91.33-1.72.68-3.43,1-5.15.85-4.56,1.66-9.13,2.52-13.69,1.42-7.58,2.83-15.16,4.31-22.73,1.69-8.66,3.44-17.31,5.16-26q1.81-9.23,3.6-18.46,1.92-9.84,3.83-19.66c.19-1,.1-2.33.69-2.77s2-.23,3-.23c3.92,0,7.84,0,11.75,0l0,0c0,.44.12.87.12,1.3v38.82c0,.63,0,1.27,0,1.91Z" transform="translate(-49.55 -178.9)"/><path class="cls-1" d="M142.19,352.69l.33-.73.34.72h-.67Z" transform="translate(-49.55 -178.9)"/><path class="cls-2" d="M368.48,380.23V336.44c.44,0,.83-.05,1.22-.05,9.07,0,18.15-.07,27.22,0a29.21,29.21,0,0,1,11.33,2.07,15.68,15.68,0,0,1,9.67,11.13,34.74,34.74,0,0,1,.23,15.68c-1.69,8-6.9,12.55-14.72,14.2a35.24,35.24,0,0,1-6.95.7c-8.87.08-17.75,0-26.62,0Z" transform="translate(-49.55 -178.9)"/></svg>